<svg viewBox="0 0 24 24" fill="white" xmlns="http://www.w3.org/2000/svg">
    <path fill-rule="evenodd" clip-rule="evenodd" d="M12 22C17.5228 22 22 17.5228 22 12C22 6.47715 17.5228 2 12 2C6.47715 2 2 6.47715 2 12C2 17.5228 6.47715 22 12 22ZM9 7.5C9 7.22386 9.22386 7 9.5 7H10.5C10.7761 7 11 7.22386 11 7.5V16.5C11 16.7761 10.7761 17 10.5 17H9.5C9.22386 17 9 16.7761 9 16.5V7.5ZM13.5 7.5C13.5 7.22386 13.7239 7 14 7H15C15.2761 7 15.5 7.22386 15.5 7.5V16.5C15.5 16.7761 15.2761 17 15 17H14C13.7239 17 13.5 16.7761 13.5 16.5V7.5Z"/>
</svg>